<svg viewBox="0 0 500 500" xmlns="http://www.w3.org/2000/svg">
  <circle class="letterboxd" fill="#d5def5" cx="250" cy="250" r="250"/>
  <g transform="translate(61 180)">
    <circle fill="#202830" cx="189" cy="70" r="70"/>
    <circle fill="#202830" cx="308" cy="70" r="70"/>
    <circle fill="#202830" cx="70" cy="70" r="70"/>
    <path d="M129.54 107.06c-6.73-10.75-10.62-23.45-10.62-37.06 0-13.61 3.89-26.32 10.62-37.06 6.73 10.74 10.62 23.45 10.62 37.06 0 13.61-3.89 26.31-10.62 37.06" fill="#d5def5"/>
    <path d="M248.46 32.94c6.73 10.75 10.62 23.45 10.62 37.06 0 13.61-3.89 26.32-10.62 37.06-6.73-10.75-10.62-23.45-10.62-37.06 0-13.61 3.89-26.32 10.62-37.06" fill="#d5def5"/>
  </g>
</svg>