<?xml version="1.0" encoding="utf-8" ?><!-- created by svgstack.com | Attribution is required. --><svg xmlns="http://www.w3.org/2000/svg" xmlns:xlink="http://www.w3.org/1999/xlink" width="1024" height="1024"><path fill="#FAC058" transform="scale(2 2)" d="M451.276 140.485C455.514 141.897 455.725 164.371 455.725 169.605L455.742 346.304C455.75 354.182 456.022 360.966 453.236 368.488C446.852 363.196 441.289 356.585 435.454 350.695L395.834 310.375C382.607 297.127 369.66 283.567 356.537 270.213C348.776 262.314 339.673 254.103 332.638 245.728C334.415 243.874 336.53 242.271 338.449 240.559L434.967 155.09C440.43 150.31 445.596 144.986 451.276 140.485Z"/><path fill="#FAC058" transform="scale(2 2)" d="M61.542 140.485C69.8731 147.393 77.8587 154.9 85.8852 162.159L169.464 236.108C173.082 239.295 176.837 242.343 180.274 245.728C173.34 251.63 167.258 258.739 160.88 265.239L116.997 310.375C105.815 321.161 95.2336 332.525 84.2785 343.529C76.9612 350.879 66.3088 360.134 60.5554 368.488C55.357 355.784 56.8051 348.887 56.8152 335.297L56.8133 182.847C56.797 169.069 54.8611 153.127 61.542 140.485Z"/><path fill="#FAC058" transform="scale(2 2)" d="M317.635 258.789C318.432 258.996 425.389 368.361 431.633 374.986C434.603 378.137 437.773 381.228 440.466 384.612C428.163 391.421 422.81 392.192 409.441 392.167L146.312 392.146L109.462 392.153C96.1702 392.157 83.074 393.787 72.7456 383.553C74.5385 381.162 76.9766 379.084 79.0507 376.918L187.522 265.834C189.857 263.452 192.134 260.955 194.671 258.789C208.648 271.463 222.683 284.103 237.033 296.353C256.349 312.841 253.246 315.268 275.026 296.495C289.213 284.268 303.283 270.497 317.635 258.789Z"/><path fill="#FAC058" transform="scale(2 2)" d="M398.643 116.003C412.83 114.889 429.156 115.336 440.466 124.606C430.999 132.143 422.21 140.486 413.084 148.427L283.233 263.777C274.178 271.954 265.228 279.662 256.292 288.048C249.514 282.359 243.178 276.02 236.578 270.113L181.821 221.069L72.7456 124.606C81.0972 115.831 92.0681 115.994 103.179 115.995L398.643 116.003Z"/></svg> 